<svg xmlns="http://www.w3.org/2000/svg" id="Layer_1" version="1.1" viewBox="0 0 202.7 78.1"><defs><style>.st0{fill:#fff}</style></defs><g id="MAHMUT_ORHAN_-_W"><path d="M47.7 29.1H60l3.1 7.2h8.2L56.5 3l-2.7 6.2-2.7-6.3-14.7 33.4h8.2l3.1-7.2Zm6.2-14.2 2.9 6.8h-5.9l3-6.8Zm40 1H82.1v-13h-7.4v33.5h7.4V23.3h11.8v13.1h7.3V2.9h-7.3v13zm81.3-13v7.4h10.1v26.1h7.3V10.3h10.1V2.9h-27.5zm-68 54.4H95.4V44.2H88v33.5h7.4V64.6h11.8v13.1h7.3V44.2h-7.3v13.1zm28.3-6.7-2.7-6.3-14.7 33.4h8.2l3.1-7.2h12.3l3.1 7.2h8.2l-14.7-33.3-2.7 6.2ZM132.6 63l3-6.8 2.9 6.8h-5.9Zm42.7 1.7-12.8-20.5V53l-5.2-5.8v30.5h7.4V61.5l10.6 16.2h7.3V44.2h-7.3v20.5zm-12.4-41.3c0 2-.5 3.6-1.5 4.8-.9 1.1-2.1 1.7-3.7 1.7s-2.9-.6-3.9-1.7c-1-1.2-1.5-2.8-1.5-4.8V2.9h-7.5v20.4c0 4 1.2 7.4 3.5 9.9 2.4 2.5 5.5 3.8 9.4 3.8s6.9-1.3 9.2-3.8c2.3-2.5 3.5-5.8 3.5-9.9V2.9h-7.5v20.4ZM72 64.6c6.6-.2 10.1-5.4 10.1-10.2s-4.6-10.2-10.2-10.2H48.6l3.2 7.3H72c1.6 0 2.8 1.3 2.8 2.9s-1.2 2.9-2.8 2.9H51.8v20.3h7.4v-13h3.3l11.3 12.6.3.4h9.4L72 64.6ZM7.4 14.9l8.5 9.5 8.6-9.5v21.5h7.3V3l-5.1 5.8V0L15.8 12.4 5.1 0v8.8L0 3v33.4h7.4V14.9z" class="st0"/><path d="m18.9 36.4-3-6.9-2.9 6.9h5.9zm95.7-21.5 8.6 9.5 8.5-9.5v21.5h7.4V3l-5.2 5.8V0l-10.8 12.4L112.4 0v8.8L107.2 3v33.4h7.4V14.9z" class="st0"/><path d="m126.1 36.4-2.9-6.9-3 6.9h5.9zM25 63.5h5.8l-2.9-6.8-2.9 6.8z" class="st0"/><path d="M27.9 43.3c-4.8 0-8.9 1.7-12.3 5.1-3.3 3.4-5 7.5-5 12.3s1.7 9 5 12.3c3.3 3.4 7.5 5.1 12.3 5.1s8.9-1.7 12.2-5.1c3.3-3.4 5-7.5 5-12.3s-1.7-9-5-12.3c-3.3-3.4-7.4-5.1-12.2-5.1Zm0 27c-5.3 0-9.5-4.3-9.5-9.5s4.3-9.5 9.5-9.5 9.5 4.3 9.5 9.5-4.3 9.5-9.5 9.5Z" class="st0"/></g></svg>